<svg xmlns="http://www.w3.org/2000/svg" viewBox="0 0 1200 520" role="img" aria-labelledby="title desc"><title id="title">공익정책 브리프 일러스트</title><desc id="desc">공식 문서, 체크리스트, 시민 안전을 상징하는 품격 있는 정책 정보 이미지</desc><defs><linearGradient id="bg" x1="0" y1="0" x2="1" y2="1"><stop offset="0" stop-color="#fff6e7"/><stop offset=".54" stop-color="#fbfbfd"/><stop offset="1" stop-color="#eaf7ff"/></linearGradient><filter id="shadow" x="-20%" y="-20%" width="140%" height="150%"><feDropShadow dx="0" dy="30" stdDeviation="28" flood-color="#9b6b24" flood-opacity=".14"/></filter></defs><rect width="1200" height="520" rx="54" fill="url(#bg)"/><circle cx="240" cy="110" r="86" fill="#9b6b24" opacity=".10"/><circle cx="950" cy="388" r="126" fill="#0071e3" opacity=".09"/><g filter="url(#shadow)"><rect x="254" y="76" width="448" height="370" rx="38" fill="#fff" opacity=".86"/><rect x="330" y="116" width="296" height="28" rx="14" fill="#102033" opacity=".16"/><rect x="330" y="172" width="250" height="18" rx="9" fill="#9b6b24" opacity=".28"/><rect x="330" y="216" width="300" height="18" rx="9" fill="#102033" opacity=".12"/><rect x="330" y="260" width="220" height="18" rx="9" fill="#102033" opacity=".12"/><rect x="330" y="304" width="286" height="18" rx="9" fill="#102033" opacity=".12"/></g><g fill="none" stroke="#0071e3" stroke-width="9" stroke-linecap="round" stroke-linejoin="round"><path d="M286 174l19 20 40-48"/><path d="M286 262l19 20 40-48"/><path d="M286 350l19 20 40-48"/></g><g transform="translate(724 156)"><path d="M118 0l118 46v94c0 90-54 151-118 188C54 291 0 230 0 140V46z" fill="#102033" opacity=".88"/><path d="M118 38l75 29v72c0 55-29 98-75 129-46-31-75-74-75-129V67z" fill="#fff" opacity=".92"/><path d="M81 148l27 27 64-78" fill="none" stroke="#34c759" stroke-width="18" stroke-linecap="round" stroke-linejoin="round"/></g></svg>